[img]http://img834.imageshack.us/img834/4775/alvinz.jpg[/img]
[code]
Alvin and the Chipmunks Chipwrecked 2011 R5 REPACK XviD-26K

Imdb: 
http://www.imdb.com/title/tt1615918/

Plot:
Playing around while aboard a cruise ship, the Chipmunks and Chipettes accidentally go overboard and end up marooned in a tropical paradise. They discover their new turf is not as deserted as it seems.

Sources:
RUSSIAN VIDEO THNXS!!
CAM/RUSSIAN AUDIO!

Notes:
Like said before... here is the repack!! larger video size filled the audio with russian audio for the songs :P so enjoy!! also that oos for 3 mins  fixed :)
my last encode for this until retail comes so enjoy!

Greetz:
Xtreme Encode|FYA|ILLUMANTI|CM8|RX|VISION|HDSCENE|NIGHTMAREZ|xTriLL|DTRG|CRYS|REMIXHD|BIDA|RX|REFILL|INSPiRAL|SIC|ZOMBIESZ|HOPE
To all the people who have helped me :P you know who you are

Anything to offer email us @: 26k@hushmail.me

Video
ID                                       : 0
Format                                   : MPEG-4 Visual
Format profile                           : Advanced Simple@L5
Format settings, BVOP                    : 1
Format settings, QPel                    : No
Format settings, GMC                     : No warppoints
Format settings, Matrix                  : Custom
Codec ID                                 : XVID
Codec ID/Hint                            : XviD
Duration                                 : 1h 23mn
Bit rate                                 : 1 953 Kbps
Width                                    : 720 pixels
Height                                   : 400 pixels
Display aspect ratio                     : 16:9
Frame rate                               : 25.000 fps
Color space                              : YUV
Chroma subsampling                       : 4:2:0
Bit depth                                : 8 bits
Scan type                                : Progressive
Compression mode                         : Lossy
Bits/(Pixel*Frame)                       : 0.271
Stream size                              : 1.14 GiB (94%)
Writing library                          : XviD 64

Audio
ID                                       : 1
Format                                   : MPEG Audio
Format version                           : Version 1
Format profile                           : Layer 3
Codec ID                                 : 50
Duration                                 : 1h 23mn
Bit rate mode                            : Constant
Bit rate                                 : 128 Kbps
Channel(s)                               : 2 channels
Sampling rate                            : 44.1 KHz
Compression mode                         : Lossy
Stream size                              : 76.6 MiB (6%)
Alignment                                : Split accross interleaves
Interleave, duration                     : 16345 ms (408.63 video frames)

[/code]
Screens:
[img]http://img842.imageshack.us/img842/4209/vlcsnap2012012012h09m56.png[/img]
[img]http://img38.imageshack.us/img38/8443/vlcsnap2012012012h10m00.png[/img]
[img]http://img820.imageshack.us/img820/4035/vlcsnap2012012012h10m13.png[/img]
[img]http://img807.imageshack.us/img807/9018/vlcsnap2012012012h10m19.png[/img]

[img]http://img851.imageshack.us/img851/5503/26ks.jpg[/img]
Thank you smallz for banner!